<svg xmlns="http://www.w3.org/2000/svg" viewBox="0 0 220 200">
  <defs>
    <linearGradient id="cover" x1="0" y1="0" x2="0" y2="1">
      <stop offset="0%" stop-color="#1e293b"/>
      <stop offset="100%" stop-color="#111827"/>
    </linearGradient>
    <linearGradient id="paper" x1="0" y1="0" x2="1" y2="0">
      <stop offset="0%" stop-color="#e5e7eb"/>
      <stop offset="100%" stop-color="#f8fafc"/>
    </linearGradient>
  </defs>
  <rect x="10" y="30" rx="10" ry="10" width="90" height="130" fill="url(#cover)" stroke="#94a3b8" stroke-width="2"/>
  <rect x="18" y="38" rx="8" ry="8" width="74" height="114" fill="url(#paper)" stroke="#cbd5e1"/>
  <g transform="translate(95,40)">
    <rect x="0" y="0" width="8" height="100" fill="#475569" rx="4"/>
    <circle cx="4" cy="15" r="3.2" fill="#94a3b8"/>
    <circle cx="4" cy="35" r="3.2" fill="#94a3b8"/>
    <circle cx="4" cy="55" r="3.2" fill="#94a3b8"/>
    <circle cx="4" cy="75" r="3.2" fill="#94a3b8"/>
    <circle cx="4" cy="95" r="3.2" fill="#94a3b8"/>
  </g>
  <rect x="105" y="30" rx="10" ry="10" width="100" height="130" fill="url(#paper)" stroke="#94a3b8" stroke-width="2"/>
  <g stroke="#cbd5e1" stroke-width="1">
    <line x1="112" y1="50" x2="198" y2="50"/>
    <line x1="112" y1="68" x2="198" y2="68"/>
    <line x1="112" y1="86" x2="198" y2="86"/>
    <line x1="112" y1="104" x2="198" y2="104"/>
    <line x1="112" y1="122" x2="198" y2="122"/>
  </g>
  <g>
    <g transform="translate(40,0)">
      <path d="M40 22c14 0 26 9 26 20s-12 20-26 20c-5 0-10-1-14-3l-10 6 3-11c-3-4-5-8-5-12 0-11 12-20 26-20z" fill="#38bdf8" stroke="#0ea5e9" stroke-width="2"/>
      <circle cx="48" cy="36" r="2" fill="#0b1327"/>
      <circle cx="59" cy="36" r="2" fill="#0b1327"/>
      <path d="M49 42q6 4 12 0" stroke="#0b1327" stroke-width="2" fill="none"/>
    </g>
    <g transform="translate(120,-8) scale(1.1)">
      <path d="M20 30c12 0 22 8 22 18s-10 18-22 18c-4 0-8-1-11-2l-8 5 2-9c-2-3-3-6-3-9 0-10 10-21 20-21z" fill="#a78bfa" stroke="#8b5cf6" stroke-width="2"/>
      <circle cx="26" cy="44" r="2" fill="#0b1327"/>
      <circle cx="33" cy="44" r="2" fill="#0b1327"/>
      <path d="M26 49q4 3 8 0" stroke="#0b1327" stroke-width="2" fill="none"/>
    </g>
  </g>
</svg>
